<mxfile host="65bd71144e">
    <diagram id="hnFBgJJ0JouFw3GVZtx5" name="Page-1">
        <mxGraphModel dx="1458" dy="698" grid="1" gridSize="10" guides="1" tooltips="1" connect="1" arrows="1" fold="1" page="1" pageScale="1" pageWidth="1654" pageHeight="1169" math="0" shadow="0">
            <root>
                <mxCell id="0"/>
                <mxCell id="1" parent="0"/>
                <mxCell id="177" value="" style="rounded=0;whiteSpace=wrap;html=1;align=left;verticalAlign=top;horizontal=1;fillColor=none;" parent="1" vertex="1">
                    <mxGeometry x="540" y="160" width="240" height="220" as="geometry"/>
                </mxCell>
                <mxCell id="179" value="" style="rounded=0;whiteSpace=wrap;html=1;align=left;verticalAlign=top;horizontal=1;fillColor=none;" parent="1" vertex="1">
                    <mxGeometry x="560" y="180" width="200" height="180" as="geometry"/>
                </mxCell>
                <mxCell id="164" value="" style="rounded=0;whiteSpace=wrap;html=1;align=left;verticalAlign=top;horizontal=1;fillColor=none;" parent="1" vertex="1">
                    <mxGeometry x="580" y="400" width="160" height="60" as="geometry"/>
                </mxCell>
                <mxCell id="5" value="3.infra" style="swimlane;fillColor=#0050ef;strokeColor=#001DBC;fontColor=#ffffff;" parent="1" vertex="1">
                    <mxGeometry x="520" y="40" width="280" height="440" as="geometry"/>
                </mxCell>
                <mxCell id="6" value="4.main" style="swimlane;startSize=23;fillColor=#6a00ff;strokeColor=#3700CC;fontColor=#ffffff;" parent="1" vertex="1">
                    <mxGeometry x="40" y="760" width="940" height="120" as="geometry"/>
                </mxCell>
                <mxCell id="150" value="" style="rounded=0;whiteSpace=wrap;html=1;align=left;verticalAlign=top;horizontal=1;fillColor=none;" parent="6" vertex="1">
                    <mxGeometry x="20" y="40" width="160" height="60" as="geometry"/>
                </mxCell>
                <mxCell id="151" value="factories" style="text;html=1;strokeColor=none;align=center;verticalAlign=middle;whiteSpace=wrap;rounded=0;fillColor=#2a2a2a;" parent="6" vertex="1">
                    <mxGeometry x="30" y="30" width="50" height="20" as="geometry"/>
                </mxCell>
                <mxCell id="152" value="sign-up&lt;br&gt;MakeSignUpController" style="rounded=0;whiteSpace=wrap;html=1;" parent="6" vertex="1">
                    <mxGeometry x="40" y="50" width="120" height="40" as="geometry"/>
                </mxCell>
                <mxCell id="87" value="0.domain" style="swimlane;fillColor=#e3c800;strokeColor=#B09500;fontColor=#000000;" parent="1" vertex="1">
                    <mxGeometry x="40" y="280" width="400" height="200" as="geometry">
                        <mxRectangle x="80" y="80" width="90" height="23" as="alternateBounds"/>
                    </mxGeometry>
                </mxCell>
                <mxCell id="88" value="" style="rounded=0;whiteSpace=wrap;html=1;align=left;verticalAlign=top;horizontal=1;fillColor=none;" parent="87" vertex="1">
                    <mxGeometry x="200" y="40" width="160" height="60" as="geometry"/>
                </mxCell>
                <mxCell id="93" value="models" style="text;html=1;strokeColor=none;align=center;verticalAlign=middle;whiteSpace=wrap;rounded=0;fillColor=#2a2a2a;" parent="87" vertex="1">
                    <mxGeometry x="210" y="30" width="50" height="20" as="geometry"/>
                </mxCell>
                <mxCell id="94" value="user&lt;br&gt;UserModel" style="rounded=0;whiteSpace=wrap;html=1;" parent="87" vertex="1">
                    <mxGeometry x="220" y="50" width="120" height="40" as="geometry"/>
                </mxCell>
                <mxCell id="89" value="" style="rounded=0;whiteSpace=wrap;html=1;align=left;verticalAlign=top;horizontal=1;fillColor=none;" parent="87" vertex="1">
                    <mxGeometry x="20" y="40" width="160" height="60" as="geometry"/>
                </mxCell>
                <mxCell id="90" value="interface" style="text;html=1;strokeColor=none;align=center;verticalAlign=middle;whiteSpace=wrap;rounded=0;fillColor=#2a2a2a;" parent="87" vertex="1">
                    <mxGeometry x="30" y="30" width="50" height="20" as="geometry"/>
                </mxCell>
                <mxCell id="92" value="create-user&lt;br&gt;CreateUser" style="rounded=0;whiteSpace=wrap;html=1;dashed=1;" parent="87" vertex="1">
                    <mxGeometry x="40" y="50" width="120" height="40" as="geometry"/>
                </mxCell>
                <mxCell id="91" style="edgeStyle=orthogonalEdgeStyle;rounded=0;orthogonalLoop=1;jettySize=auto;html=1;" parent="87" source="92" target="94" edge="1">
                    <mxGeometry relative="1" as="geometry"/>
                </mxCell>
                <mxCell id="111" value="2.adapter" style="swimlane;fillColor=#008a00;strokeColor=#005700;fontColor=#ffffff;" parent="1" vertex="1">
                    <mxGeometry x="40" y="520" width="940" height="200" as="geometry"/>
                </mxCell>
                <mxCell id="167" style="edgeStyle=orthogonalEdgeStyle;rounded=0;jumpStyle=none;orthogonalLoop=1;jettySize=auto;html=1;strokeColor=#F0F0F0;" parent="111" source="114" target="116" edge="1">
                    <mxGeometry relative="1" as="geometry">
                        <Array as="points">
                            <mxPoint x="100" y="110"/>
                            <mxPoint x="240" y="110"/>
                        </Array>
                    </mxGeometry>
                </mxCell>
                <mxCell id="126" value="" style="rounded=0;whiteSpace=wrap;html=1;align=left;verticalAlign=top;horizontal=1;fillColor=none;" parent="111" vertex="1">
                    <mxGeometry x="20" y="40" width="160" height="60" as="geometry"/>
                </mxCell>
                <mxCell id="112" value="" style="rounded=0;whiteSpace=wrap;html=1;align=left;verticalAlign=top;horizontal=1;fillColor=none;" parent="111" vertex="1">
                    <mxGeometry x="20" y="120" width="440" height="60" as="geometry"/>
                </mxCell>
                <mxCell id="113" value="interface" style="text;html=1;strokeColor=none;align=center;verticalAlign=middle;whiteSpace=wrap;rounded=0;fillColor=#2a2a2a;" parent="111" vertex="1">
                    <mxGeometry x="30" y="110" width="50" height="20" as="geometry"/>
                </mxCell>
                <mxCell id="115" value="controller&lt;br&gt;Controller" style="rounded=0;whiteSpace=wrap;html=1;dashed=1;" parent="111" vertex="1">
                    <mxGeometry x="40" y="130" width="120" height="40" as="geometry"/>
                </mxCell>
                <mxCell id="116" value="email-validator&lt;br&gt;EmailValidator" style="rounded=0;whiteSpace=wrap;html=1;dashed=1;" parent="111" vertex="1">
                    <mxGeometry x="180" y="130" width="120" height="40" as="geometry"/>
                </mxCell>
                <mxCell id="131" style="edgeStyle=orthogonalEdgeStyle;rounded=0;jumpStyle=none;orthogonalLoop=1;jettySize=auto;html=1;" parent="111" source="114" target="115" edge="1">
                    <mxGeometry relative="1" as="geometry"/>
                </mxCell>
                <mxCell id="127" value="controllers" style="text;html=1;strokeColor=none;align=center;verticalAlign=middle;whiteSpace=wrap;rounded=0;fillColor=#2a2a2a;" parent="111" vertex="1">
                    <mxGeometry x="30" y="30" width="60" height="20" as="geometry"/>
                </mxCell>
                <mxCell id="114" value="sign-up&lt;br&gt;SinUpController" style="rounded=0;whiteSpace=wrap;html=1;" parent="111" vertex="1">
                    <mxGeometry x="40" y="50" width="120" height="40" as="geometry"/>
                </mxCell>
                <mxCell id="188" value="http&lt;br&gt;HttpReq/HttpRes" style="rounded=0;whiteSpace=wrap;html=1;dashed=1;" parent="111" vertex="1">
                    <mxGeometry x="320" y="130" width="120" height="40" as="geometry"/>
                </mxCell>
                <mxCell id="189" value="" style="rounded=0;whiteSpace=wrap;html=1;align=left;verticalAlign=top;horizontal=1;fillColor=none;" parent="111" vertex="1">
                    <mxGeometry x="480" y="120" width="440" height="60" as="geometry"/>
                </mxCell>
                <mxCell id="192" value="missing-param-error&lt;br&gt;MissingParamError" style="rounded=0;whiteSpace=wrap;html=1;" parent="111" vertex="1">
                    <mxGeometry x="640" y="130" width="120" height="40" as="geometry"/>
                </mxCell>
                <mxCell id="190" value="errors" style="text;html=1;strokeColor=none;align=center;verticalAlign=middle;whiteSpace=wrap;rounded=0;fillColor=#2a2a2a;" parent="111" vertex="1">
                    <mxGeometry x="490" y="110" width="40" height="20" as="geometry"/>
                </mxCell>
                <mxCell id="191" value="invalid-param-error&lt;br&gt;InvalidParamError" style="rounded=0;whiteSpace=wrap;html=1;" parent="111" vertex="1">
                    <mxGeometry x="500" y="130" width="120" height="40" as="geometry"/>
                </mxCell>
                <mxCell id="193" value="server-error&lt;br&gt;ServerError" style="rounded=0;whiteSpace=wrap;html=1;" parent="111" vertex="1">
                    <mxGeometry x="780" y="130" width="120" height="40" as="geometry"/>
                </mxCell>
                <mxCell id="194" value="" style="rounded=0;whiteSpace=wrap;html=1;align=left;verticalAlign=top;horizontal=1;fillColor=none;" parent="111" vertex="1">
                    <mxGeometry x="480" y="40" width="160" height="60" as="geometry"/>
                </mxCell>
                <mxCell id="195" value="helpers" style="text;html=1;strokeColor=none;align=center;verticalAlign=middle;whiteSpace=wrap;rounded=0;fillColor=#2a2a2a;" parent="111" vertex="1">
                    <mxGeometry x="490" y="30" width="60" height="20" as="geometry"/>
                </mxCell>
                <mxCell id="196" value="http-response" style="rounded=0;whiteSpace=wrap;html=1;" parent="111" vertex="1">
                    <mxGeometry x="500" y="50" width="120" height="40" as="geometry"/>
                </mxCell>
                <mxCell id="197" style="edgeStyle=orthogonalEdgeStyle;rounded=0;jumpStyle=none;orthogonalLoop=1;jettySize=auto;html=1;strokeColor=#F0F0F0;" parent="111" source="196" target="193" edge="1">
                    <mxGeometry relative="1" as="geometry"/>
                </mxCell>
                <mxCell id="198" style="edgeStyle=orthogonalEdgeStyle;rounded=0;jumpStyle=none;orthogonalLoop=1;jettySize=auto;html=1;strokeColor=#F0F0F0;" parent="111" source="196" target="188" edge="1">
                    <mxGeometry relative="1" as="geometry"/>
                </mxCell>
                <mxCell id="117" value="1.application" style="swimlane;fillColor=#e51400;strokeColor=#B20000;fontColor=#ffffff;" parent="1" vertex="1">
                    <mxGeometry x="40" y="40" width="400" height="200" as="geometry"/>
                </mxCell>
                <mxCell id="204" value="" style="rounded=0;whiteSpace=wrap;html=1;align=left;verticalAlign=top;horizontal=1;fillColor=none;" parent="117" vertex="1">
                    <mxGeometry x="20" y="40" width="160" height="60" as="geometry"/>
                </mxCell>
                <mxCell id="205" value="usecases" style="text;html=1;strokeColor=none;align=center;verticalAlign=middle;whiteSpace=wrap;rounded=0;fillColor=#2a2a2a;" parent="117" vertex="1">
                    <mxGeometry x="30" y="31" width="60" height="20" as="geometry"/>
                </mxCell>
                <mxCell id="120" value="create-user&lt;br&gt;CreateUserUseCase" style="rounded=0;whiteSpace=wrap;html=1;" parent="117" vertex="1">
                    <mxGeometry x="40" y="51" width="120" height="40" as="geometry"/>
                </mxCell>
                <mxCell id="139" style="edgeStyle=orthogonalEdgeStyle;rounded=0;jumpStyle=none;orthogonalLoop=1;jettySize=auto;html=1;" parent="1" source="120" target="92" edge="1">
                    <mxGeometry relative="1" as="geometry">
                        <Array as="points">
                            <mxPoint x="140" y="310"/>
                            <mxPoint x="140" y="310"/>
                        </Array>
                    </mxGeometry>
                </mxCell>
                <mxCell id="142" style="edgeStyle=orthogonalEdgeStyle;rounded=0;jumpStyle=none;orthogonalLoop=1;jettySize=auto;html=1;" parent="1" source="114" target="92" edge="1">
                    <mxGeometry relative="1" as="geometry">
                        <Array as="points">
                            <mxPoint x="30" y="590"/>
                            <mxPoint x="30" y="350"/>
                        </Array>
                    </mxGeometry>
                </mxCell>
                <mxCell id="143" style="edgeStyle=orthogonalEdgeStyle;rounded=0;jumpStyle=none;orthogonalLoop=1;jettySize=auto;html=1;entryX=1;entryY=0.5;entryDx=0;entryDy=0;" parent="1" source="85" target="94" edge="1">
                    <mxGeometry relative="1" as="geometry">
                        <Array as="points">
                            <mxPoint x="480" y="310"/>
                            <mxPoint x="480" y="350"/>
                        </Array>
                    </mxGeometry>
                </mxCell>
                <mxCell id="144" style="edgeStyle=orthogonalEdgeStyle;rounded=0;jumpStyle=none;orthogonalLoop=1;jettySize=auto;html=1;" parent="1" source="85" target="92" edge="1">
                    <mxGeometry relative="1" as="geometry">
                        <Array as="points">
                            <mxPoint x="480" y="310"/>
                            <mxPoint x="480" y="410"/>
                            <mxPoint x="140" y="410"/>
                        </Array>
                    </mxGeometry>
                </mxCell>
                <mxCell id="148" value="mongodb" style="rounded=0;whiteSpace=wrap;html=1;" parent="1" vertex="1">
                    <mxGeometry x="840" y="210" width="120" height="40" as="geometry"/>
                </mxCell>
                <mxCell id="149" style="edgeStyle=orthogonalEdgeStyle;rounded=0;jumpStyle=none;orthogonalLoop=1;jettySize=auto;html=1;" parent="1" source="147" target="148" edge="1">
                    <mxGeometry relative="1" as="geometry">
                        <mxPoint x="850" y="150" as="targetPoint"/>
                    </mxGeometry>
                </mxCell>
                <mxCell id="153" value="" style="rounded=0;whiteSpace=wrap;html=1;align=left;verticalAlign=top;horizontal=1;fillColor=none;" parent="1" vertex="1">
                    <mxGeometry x="240" y="800" width="160" height="60" as="geometry"/>
                </mxCell>
                <mxCell id="154" value="routes" style="text;html=1;strokeColor=none;align=center;verticalAlign=middle;whiteSpace=wrap;rounded=0;fillColor=#2a2a2a;" parent="1" vertex="1">
                    <mxGeometry x="250" y="790" width="50" height="20" as="geometry"/>
                </mxCell>
                <mxCell id="155" value="sign-up&lt;br&gt;SinUpController" style="rounded=0;whiteSpace=wrap;html=1;" parent="1" vertex="1">
                    <mxGeometry x="260" y="810" width="120" height="40" as="geometry"/>
                </mxCell>
                <mxCell id="156" value="" style="rounded=0;whiteSpace=wrap;html=1;align=left;verticalAlign=top;horizontal=1;fillColor=none;" parent="1" vertex="1">
                    <mxGeometry x="420" y="800" width="160" height="60" as="geometry"/>
                </mxCell>
                <mxCell id="157" value="routes" style="text;html=1;strokeColor=none;align=center;verticalAlign=middle;whiteSpace=wrap;rounded=0;fillColor=#2a2a2a;" parent="1" vertex="1">
                    <mxGeometry x="430" y="790" width="50" height="20" as="geometry"/>
                </mxCell>
                <mxCell id="158" value="sign-up&lt;br&gt;SinUpController" style="rounded=0;whiteSpace=wrap;html=1;" parent="1" vertex="1">
                    <mxGeometry x="440" y="810" width="120" height="40" as="geometry"/>
                </mxCell>
                <mxCell id="159" style="edgeStyle=orthogonalEdgeStyle;rounded=0;jumpStyle=none;orthogonalLoop=1;jettySize=auto;html=1;fillColor=#f0a30a;dashed=1;strokeColor=#BD7000;" parent="1" source="152" target="120" edge="1">
                    <mxGeometry relative="1" as="geometry">
                        <Array as="points">
                            <mxPoint x="140" y="740"/>
                            <mxPoint x="20" y="740"/>
                            <mxPoint x="20" y="110"/>
                        </Array>
                    </mxGeometry>
                </mxCell>
                <mxCell id="163" style="edgeStyle=orthogonalEdgeStyle;rounded=0;jumpStyle=none;orthogonalLoop=1;jettySize=auto;html=1;strokeColor=#F0F0F0;" parent="1" source="171" target="116" edge="1">
                    <mxGeometry relative="1" as="geometry">
                        <mxPoint x="640.0000000000002" y="280" as="sourcePoint"/>
                        <Array as="points">
                            <mxPoint x="660" y="500"/>
                            <mxPoint x="310" y="500"/>
                        </Array>
                    </mxGeometry>
                </mxCell>
                <mxCell id="173" style="edgeStyle=orthogonalEdgeStyle;rounded=0;jumpStyle=none;orthogonalLoop=1;jettySize=auto;html=1;strokeColor=#F0F0F0;" parent="1" source="169" target="172" edge="1">
                    <mxGeometry relative="1" as="geometry"/>
                </mxCell>
                <mxCell id="184" style="edgeStyle=orthogonalEdgeStyle;rounded=0;jumpStyle=arc;orthogonalLoop=1;jettySize=auto;html=1;strokeColor=#F0F0F0;" parent="1" source="169" target="124" edge="1">
                    <mxGeometry relative="1" as="geometry">
                        <mxPoint x="500" y="130" as="targetPoint"/>
                        <Array as="points">
                            <mxPoint x="500" y="110"/>
                            <mxPoint x="500" y="110"/>
                        </Array>
                    </mxGeometry>
                </mxCell>
                <mxCell id="168" value="" style="rounded=0;whiteSpace=wrap;html=1;align=left;verticalAlign=top;horizontal=1;fillColor=none;" parent="1" vertex="1">
                    <mxGeometry x="580" y="80" width="160" height="60" as="geometry"/>
                </mxCell>
                <mxCell id="170" value="cryptograpphy" style="text;html=1;strokeColor=none;align=center;verticalAlign=middle;whiteSpace=wrap;rounded=0;fillColor=#2a2a2a;" parent="1" vertex="1">
                    <mxGeometry x="590" y="70" width="90" height="20" as="geometry"/>
                </mxCell>
                <mxCell id="169" value="bcrypt&lt;br&gt;BcryptAdapter" style="rounded=0;whiteSpace=wrap;html=1;" parent="1" vertex="1">
                    <mxGeometry x="600" y="90" width="120" height="40" as="geometry"/>
                </mxCell>
                <mxCell id="165" value="validators" style="text;html=1;strokeColor=none;align=center;verticalAlign=middle;whiteSpace=wrap;rounded=0;fillColor=#2a2a2a;" parent="1" vertex="1">
                    <mxGeometry x="590" y="390" width="60" height="20" as="geometry"/>
                </mxCell>
                <mxCell id="175" style="edgeStyle=orthogonalEdgeStyle;rounded=0;jumpStyle=none;orthogonalLoop=1;jettySize=auto;html=1;strokeColor=#F0F0F0;" parent="1" source="171" target="174" edge="1">
                    <mxGeometry relative="1" as="geometry"/>
                </mxCell>
                <mxCell id="171" value="email-validator&lt;br&gt;EmailValidatorAdapter" style="rounded=0;whiteSpace=wrap;html=1;" parent="1" vertex="1">
                    <mxGeometry x="600" y="410" width="120" height="40" as="geometry"/>
                </mxCell>
                <mxCell id="172" value="bcrypt" style="rounded=0;whiteSpace=wrap;html=1;" parent="1" vertex="1">
                    <mxGeometry x="840" y="90" width="120" height="40" as="geometry"/>
                </mxCell>
                <mxCell id="174" value="validator" style="rounded=0;whiteSpace=wrap;html=1;" parent="1" vertex="1">
                    <mxGeometry x="840" y="410" width="120" height="40" as="geometry"/>
                </mxCell>
                <mxCell id="178" value="database" style="text;html=1;strokeColor=none;align=center;verticalAlign=middle;whiteSpace=wrap;rounded=0;fillColor=#2a2a2a;" parent="1" vertex="1">
                    <mxGeometry x="550" y="150" width="60" height="20" as="geometry"/>
                </mxCell>
                <mxCell id="180" value="mongodb" style="text;html=1;strokeColor=none;align=center;verticalAlign=middle;whiteSpace=wrap;rounded=0;fillColor=#2a2a2a;" parent="1" vertex="1">
                    <mxGeometry x="570" y="170" width="60" height="20" as="geometry"/>
                </mxCell>
                <mxCell id="185" style="edgeStyle=orthogonalEdgeStyle;rounded=0;jumpStyle=none;orthogonalLoop=1;jettySize=auto;html=1;strokeColor=#F0F0F0;" parent="1" source="85" target="123" edge="1">
                    <mxGeometry relative="1" as="geometry">
                        <Array as="points">
                            <mxPoint x="480" y="310"/>
                            <mxPoint x="480" y="161"/>
                        </Array>
                    </mxGeometry>
                </mxCell>
                <mxCell id="83" value="" style="rounded=0;whiteSpace=wrap;html=1;align=left;verticalAlign=top;horizontal=1;fillColor=none;" parent="1" vertex="1">
                    <mxGeometry x="580" y="280" width="160" height="60" as="geometry"/>
                </mxCell>
                <mxCell id="84" value="repositories" style="text;html=1;strokeColor=none;align=center;verticalAlign=middle;whiteSpace=wrap;rounded=0;fillColor=#2a2a2a;" parent="1" vertex="1">
                    <mxGeometry x="590" y="270" width="70" height="20" as="geometry"/>
                </mxCell>
                <mxCell id="182" style="edgeStyle=orthogonalEdgeStyle;rounded=0;jumpStyle=arc;orthogonalLoop=1;jettySize=auto;html=1;strokeColor=#F0F0F0;" parent="1" source="85" target="147" edge="1">
                    <mxGeometry relative="1" as="geometry">
                        <Array as="points">
                            <mxPoint x="670" y="270"/>
                            <mxPoint x="670" y="270"/>
                        </Array>
                    </mxGeometry>
                </mxCell>
                <mxCell id="85" value="user&lt;br&gt;UserMongoRepository" style="rounded=0;whiteSpace=wrap;html=1;" parent="1" vertex="1">
                    <mxGeometry x="600" y="290" width="120" height="40" as="geometry"/>
                </mxCell>
                <mxCell id="145" value="" style="rounded=0;whiteSpace=wrap;html=1;align=left;verticalAlign=top;horizontal=1;fillColor=none;" parent="1" vertex="1">
                    <mxGeometry x="580" y="200" width="160" height="60" as="geometry"/>
                </mxCell>
                <mxCell id="146" value="adapter" style="text;html=1;strokeColor=none;align=center;verticalAlign=middle;whiteSpace=wrap;rounded=0;fillColor=#2a2a2a;" parent="1" vertex="1">
                    <mxGeometry x="590" y="190" width="60" height="20" as="geometry"/>
                </mxCell>
                <mxCell id="147" value="mongodb&lt;br&gt;MongodbAdapter" style="rounded=0;whiteSpace=wrap;html=1;" parent="1" vertex="1">
                    <mxGeometry x="600" y="210" width="120" height="40" as="geometry"/>
                </mxCell>
                <mxCell id="186" style="edgeStyle=orthogonalEdgeStyle;rounded=0;jumpStyle=none;orthogonalLoop=1;jettySize=auto;html=1;strokeColor=#F0F0F0;" parent="1" source="123" target="94" edge="1">
                    <mxGeometry relative="1" as="geometry"/>
                </mxCell>
                <mxCell id="187" style="edgeStyle=orthogonalEdgeStyle;rounded=0;jumpStyle=none;orthogonalLoop=1;jettySize=auto;html=1;strokeColor=#F0F0F0;" parent="1" source="123" target="92" edge="1">
                    <mxGeometry relative="1" as="geometry">
                        <Array as="points">
                            <mxPoint x="320" y="260"/>
                            <mxPoint x="160" y="260"/>
                        </Array>
                    </mxGeometry>
                </mxCell>
                <mxCell id="121" value="" style="rounded=0;whiteSpace=wrap;html=1;align=left;verticalAlign=top;horizontal=1;fillColor=none;" parent="1" vertex="1">
                    <mxGeometry x="240" y="80" width="160" height="110" as="geometry"/>
                </mxCell>
                <mxCell id="122" value="interface" style="text;html=1;strokeColor=none;align=center;verticalAlign=middle;whiteSpace=wrap;rounded=0;fillColor=#2a2a2a;" parent="1" vertex="1">
                    <mxGeometry x="250" y="71" width="50" height="20" as="geometry"/>
                </mxCell>
                <mxCell id="124" value="hasher&lt;br&gt;Hasher" style="rounded=0;whiteSpace=wrap;html=1;dashed=1;" parent="1" vertex="1">
                    <mxGeometry x="260" y="91" width="120" height="40" as="geometry"/>
                </mxCell>
                <mxCell id="123" value="create-user-repository&lt;br&gt;CreateUserRepository" style="rounded=0;whiteSpace=wrap;html=1;dashed=1;" parent="1" vertex="1">
                    <mxGeometry x="260" y="140" width="120" height="40" as="geometry"/>
                </mxCell>
                <mxCell id="141" style="edgeStyle=orthogonalEdgeStyle;rounded=0;jumpStyle=none;orthogonalLoop=1;jettySize=auto;html=1;" parent="1" source="120" target="124" edge="1">
                    <mxGeometry relative="1" as="geometry">
                        <Array as="points">
                            <mxPoint x="210" y="110"/>
                            <mxPoint x="210" y="110"/>
                        </Array>
                    </mxGeometry>
                </mxCell>
                <mxCell id="140" style="edgeStyle=orthogonalEdgeStyle;rounded=0;jumpStyle=none;orthogonalLoop=1;jettySize=auto;html=1;" parent="1" source="120" target="123" edge="1">
                    <mxGeometry relative="1" as="geometry">
                        <Array as="points">
                            <mxPoint x="230" y="110"/>
                            <mxPoint x="230" y="159"/>
                        </Array>
                    </mxGeometry>
                </mxCell>
                <mxCell id="199" style="edgeStyle=orthogonalEdgeStyle;rounded=0;jumpStyle=none;orthogonalLoop=1;jettySize=auto;html=1;fillColor=#f0a30a;strokeColor=#BD7000;dashed=1;" parent="1" source="152" target="114" edge="1">
                    <mxGeometry relative="1" as="geometry">
                        <Array as="points">
                            <mxPoint x="140" y="740"/>
                            <mxPoint x="20" y="740"/>
                            <mxPoint x="20" y="630"/>
                            <mxPoint x="120" y="630"/>
                        </Array>
                    </mxGeometry>
                </mxCell>
                <mxCell id="200" style="edgeStyle=orthogonalEdgeStyle;rounded=0;jumpStyle=none;orthogonalLoop=1;jettySize=auto;html=1;fillColor=#f0a30a;dashed=1;strokeColor=#BD7000;" parent="1" source="152" target="171" edge="1">
                    <mxGeometry relative="1" as="geometry">
                        <Array as="points">
                            <mxPoint x="140" y="740"/>
                            <mxPoint x="1000" y="740"/>
                            <mxPoint x="1000" y="500"/>
                            <mxPoint x="680" y="500"/>
                        </Array>
                    </mxGeometry>
                </mxCell>
                <mxCell id="201" style="edgeStyle=orthogonalEdgeStyle;rounded=0;jumpStyle=none;orthogonalLoop=1;jettySize=auto;html=1;fillColor=#f0a30a;dashed=1;strokeColor=#BD7000;" parent="1" source="152" target="169" edge="1">
                    <mxGeometry relative="1" as="geometry">
                        <Array as="points">
                            <mxPoint x="140" y="740"/>
                            <mxPoint x="1000" y="740"/>
                            <mxPoint x="1000" y="150"/>
                            <mxPoint x="660" y="150"/>
                        </Array>
                    </mxGeometry>
                </mxCell>
                <mxCell id="202" style="edgeStyle=orthogonalEdgeStyle;rounded=0;jumpStyle=none;orthogonalLoop=1;jettySize=auto;html=1;fillColor=#f0a30a;dashed=1;strokeColor=#BD7000;" parent="1" source="150" target="85" edge="1">
                    <mxGeometry relative="1" as="geometry">
                        <Array as="points">
                            <mxPoint x="140" y="740"/>
                            <mxPoint x="1000" y="740"/>
                            <mxPoint x="1000" y="350"/>
                            <mxPoint x="660" y="350"/>
                        </Array>
                    </mxGeometry>
                </mxCell>
            </root>
        </mxGraphModel>
    </diagram>
</mxfile>